<?xml version="1.0" encoding="UTF-8" standalone="no"?>
<!-- Created with Inkscape (http://www.inkscape.org/) -->

<svg
   xmlns:dc="http://purl.org/dc/elements/1.1/"
   xmlns:cc="http://creativecommons.org/ns#"
   xmlns:rdf="http://www.w3.org/1999/02/22-rdf-syntax-ns#"
   xmlns:svg="http://www.w3.org/2000/svg"
   xmlns="http://www.w3.org/2000/svg"
   xmlns:sodipodi="http://sodipodi.sourceforge.net/DTD/sodipodi-0.dtd"
   xmlns:inkscape="http://www.inkscape.org/namespaces/inkscape"
   width="744.09448"
   height="300"
   id="svg2"
   version="1.1"
   inkscape:version="0.48.4 r9939"
   sodipodi:docname="arrow.svg">
  <defs
     id="defs4" />
  <sodipodi:namedview
     id="base"
     pagecolor="#ffffff"
     bordercolor="#666666"
     borderopacity="1.0"
     inkscape:pageopacity="0.0"
     inkscape:pageshadow="2"
     inkscape:zoom="1.2862839"
     inkscape:cx="366.40098"
     inkscape:cy="911.69232"
     inkscape:document-units="px"
     inkscape:current-layer="layer1"
     showgrid="false"
     inkscape:window-width="1319"
     inkscape:window-height="744"
     inkscape:window-x="47"
     inkscape:window-y="24"
     inkscape:window-maximized="1"
     inkscape:snap-grids="false"
     inkscape:snap-to-guides="false"
     inkscape:snap-page="true" />
  <metadata
     id="metadata7">
    <rdf:RDF>
      <cc:Work
         rdf:about="">
        <dc:format>image/svg+xml</dc:format>
        <dc:type
           rdf:resource="http://purl.org/dc/dcmitype/StillImage" />
        <dc:title />
      </cc:Work>
    </rdf:RDF>
  </metadata>
  <g
     inkscape:label="Layer 1"
     inkscape:groupmode="layer"
     id="layer1"
     transform="translate(0,-0.00218262)">
    <path
       style="fill:#ececec;stroke:#000000;stroke-width:1.04628527px;stroke-linecap:butt;stroke-linejoin:miter;stroke-opacity:1"
       d="M 25.508386,239.40281 350.7443,32.008192 711.14086,224.15321 l -123.06224,0 L 353.67435,111.30613 130.9903,239.40281 z"
       id="path2985"
       inkscape:connector-curvature="0" />
    <path
       style="fill:#ececec;fill-opacity:0.68036535;stroke:#ac4b34;stroke-width:5.97877312;stroke-linecap:butt;stroke-linejoin:miter;stroke-miterlimit:4;stroke-opacity:0.61187212;stroke-dasharray:none"
       d="M 34.68922,236.4346 C 39.449181,231.99664 348.98439,36.278081 351.2432,36.278081 c 1.57737,0 80.65605,41.51704 175.73044,92.260109 l 172.86252,92.2601 -55.156,0.82597 -55.156,0.82597 -117.11915,-56.60044 C 367.49052,115.14751 354.52255,109.60622 347.96075,112.67402 c -4.02882,1.88358 -54.84895,30.75637 -112.93361,64.16176 l -105.60849,60.73708 -47.975141,0 c -26.386329,0 -47.425759,-0.51222 -46.754289,-1.13826 z"
       id="path2987"
       inkscape:connector-curvature="0" />
    <path
       style="fill:#ececec;fill-opacity:0.68036535;stroke:#ac4b34;stroke-width:5.97877312;stroke-linecap:butt;stroke-linejoin:miter;stroke-miterlimit:4;stroke-opacity:0.61187212;stroke-dasharray:none"
       d="M 65.740252,232.2725 51.619627,231.12155 124.34132,184.63539 C 164.33825,159.068 231.80771,116.4399 274.27346,89.906301 l 77.21045,-48.24294 116.17307,61.211289 c 63.89519,33.6662 137.81748,72.8087 164.27176,86.9833 l 48.0987,25.772 -43.70361,1.20401 -43.70363,1.204 -92.29668,-44.02487 C 378.67582,115.988 363.78822,109.47469 352.82871,109.4843 c -6.5353,0.005 -41.41911,18.41734 -118.46078,62.52338 L 125.1702,234.52293 102.51554,233.9732 c -12.460068,-0.30237 -29.008945,-1.06768 -36.775288,-1.7007 z"
       id="path2989"
       inkscape:connector-curvature="0" />
    <path
       inkscape:connector-curvature="0"
       id="path3149"
       d="M 25.508386,239.40281 350.7443,32.008192 711.14086,224.15321 l -123.06224,0 L 353.67435,111.30613 130.9903,239.40281 z"
       style="fill:#ececec;stroke:#000000;stroke-width:1.04628527px;stroke-linecap:butt;stroke-linejoin:miter;stroke-opacity:1" />
    <path
       inkscape:connector-curvature="0"
       id="path3151"
       d="M 34.68922,236.4346 C 39.449181,231.99664 348.98439,36.278081 351.2432,36.278081 c 1.57737,0 80.65605,41.51704 175.73044,92.260109 l 172.86252,92.2601 -55.156,0.82597 -55.156,0.82597 -117.11915,-56.60044 C 367.49052,115.14751 354.52255,109.60622 347.96075,112.67402 c -4.02882,1.88358 -54.84895,30.75637 -112.93361,64.16176 l -105.60849,60.73708 -47.975141,0 c -26.386329,0 -47.425759,-0.51222 -46.754289,-1.13826 z"
       style="fill:#ececec;fill-opacity:0.68036535;stroke:#ac4b34;stroke-width:5.97877312;stroke-linecap:butt;stroke-linejoin:miter;stroke-miterlimit:4;stroke-opacity:0.61187212;stroke-dasharray:none" />
    <path
       inkscape:connector-curvature="0"
       id="path3153"
       d="M 65.740252,232.2725 51.619627,231.12155 124.34132,184.63539 C 164.33825,159.068 231.80771,116.4399 274.27346,89.906301 l 77.21045,-48.24294 116.17307,61.211289 c 63.89519,33.6662 137.81748,72.8087 164.27176,86.9833 l 48.0987,25.772 -43.70361,1.20401 -43.70363,1.204 -92.29668,-44.02487 C 378.67582,115.988 363.78822,109.47469 352.82871,109.4843 c -6.5353,0.005 -41.41911,18.41734 -118.46078,62.52338 L 125.1702,234.52293 102.51554,233.9732 c -12.460068,-0.30237 -29.008945,-1.06768 -36.775288,-1.7007 z"
       style="fill:#ececec;fill-opacity:0.68036535;stroke:#ac4b34;stroke-width:5.97877312;stroke-linecap:butt;stroke-linejoin:miter;stroke-miterlimit:4;stroke-opacity:0.61187212;stroke-dasharray:none" />
  </g>
</svg>
